<mxfile host="app.diagrams.net" modified="2024-05-03T13:20:44.435Z" agent="Mozilla/5.0 (Windows NT 10.0; Win64; x64) AppleWebKit/537.36 (KHTML, like Gecko) Chrome/124.0.0.0 Safari/537.36" etag="3PlrJsrNjeDr9Fs31G5S" version="24.3.1" type="github">
  <diagram name="PÃ¡gina-1" id="WlBqeiinKaLGOXGlaYjl">
    <mxGraphModel dx="1050" dy="761" grid="1" gridSize="10" guides="1" tooltips="1" connect="1" arrows="1" fold="1" page="1" pageScale="1" pageWidth="827" pageHeight="1169" math="0" shadow="0">
      <root>
        <mxCell id="0" />
        <mxCell id="1" parent="0" />
        <mxCell id="myc6BcNMUTNV8lKB5lNB-5" value="" style="edgeStyle=orthogonalEdgeStyle;rounded=0;orthogonalLoop=1;jettySize=auto;html=1;" edge="1" parent="1" source="myc6BcNMUTNV8lKB5lNB-1" target="myc6BcNMUTNV8lKB5lNB-4">
          <mxGeometry relative="1" as="geometry" />
        </mxCell>
        <mxCell id="myc6BcNMUTNV8lKB5lNB-1" value="Proceso Fahrenheit_a_Celcius" style="ellipse;whiteSpace=wrap;html=1;fillColor=#ffe6cc;strokeColor=#d79b00;" vertex="1" parent="1">
          <mxGeometry x="324" y="160" width="180" height="40" as="geometry" />
        </mxCell>
        <mxCell id="myc6BcNMUTNV8lKB5lNB-7" value="" style="edgeStyle=orthogonalEdgeStyle;rounded=0;orthogonalLoop=1;jettySize=auto;html=1;" edge="1" parent="1" source="myc6BcNMUTNV8lKB5lNB-4" target="myc6BcNMUTNV8lKB5lNB-6">
          <mxGeometry relative="1" as="geometry" />
        </mxCell>
        <mxCell id="myc6BcNMUTNV8lKB5lNB-4" value="Definir Fahrenheit, Celcius Como Real" style="whiteSpace=wrap;html=1;fillColor=#fff2cc;strokeColor=#d6b656;" vertex="1" parent="1">
          <mxGeometry x="309" y="250" width="210" height="30" as="geometry" />
        </mxCell>
        <mxCell id="myc6BcNMUTNV8lKB5lNB-9" value="" style="edgeStyle=orthogonalEdgeStyle;rounded=0;orthogonalLoop=1;jettySize=auto;html=1;" edge="1" parent="1" source="myc6BcNMUTNV8lKB5lNB-6" target="myc6BcNMUTNV8lKB5lNB-8">
          <mxGeometry relative="1" as="geometry" />
        </mxCell>
        <mxCell id="myc6BcNMUTNV8lKB5lNB-6" value="&quot;Hola, dame un valor de Fahrenheit para convertirlo a Celcius&quot;" style="shape=parallelogram;perimeter=parallelogramPerimeter;whiteSpace=wrap;html=1;fixedSize=1;fillColor=#d5e8d4;strokeColor=#82b366;" vertex="1" parent="1">
          <mxGeometry x="231" y="320" width="366" height="40" as="geometry" />
        </mxCell>
        <mxCell id="myc6BcNMUTNV8lKB5lNB-11" value="" style="edgeStyle=orthogonalEdgeStyle;rounded=0;orthogonalLoop=1;jettySize=auto;html=1;" edge="1" parent="1" source="myc6BcNMUTNV8lKB5lNB-8" target="myc6BcNMUTNV8lKB5lNB-10">
          <mxGeometry relative="1" as="geometry" />
        </mxCell>
        <mxCell id="myc6BcNMUTNV8lKB5lNB-8" value="Fahrenheit" style="shape=parallelogram;perimeter=parallelogramPerimeter;whiteSpace=wrap;html=1;fixedSize=1;fillColor=#f8cecc;strokeColor=#b85450;" vertex="1" parent="1">
          <mxGeometry x="366" y="410" width="96" height="30" as="geometry" />
        </mxCell>
        <mxCell id="myc6BcNMUTNV8lKB5lNB-13" value="" style="edgeStyle=orthogonalEdgeStyle;rounded=0;orthogonalLoop=1;jettySize=auto;html=1;" edge="1" parent="1" source="myc6BcNMUTNV8lKB5lNB-10" target="myc6BcNMUTNV8lKB5lNB-12">
          <mxGeometry relative="1" as="geometry" />
        </mxCell>
        <mxCell id="myc6BcNMUTNV8lKB5lNB-10" value="Celcius =(Fahrenheit-32)*5/9" style="whiteSpace=wrap;html=1;fillColor=#fff2cc;strokeColor=#d6b656;" vertex="1" parent="1">
          <mxGeometry x="331" y="490" width="166" height="25" as="geometry" />
        </mxCell>
        <mxCell id="myc6BcNMUTNV8lKB5lNB-15" value="" style="edgeStyle=orthogonalEdgeStyle;rounded=0;orthogonalLoop=1;jettySize=auto;html=1;" edge="1" parent="1" source="myc6BcNMUTNV8lKB5lNB-12" target="myc6BcNMUTNV8lKB5lNB-14">
          <mxGeometry relative="1" as="geometry" />
        </mxCell>
        <mxCell id="myc6BcNMUTNV8lKB5lNB-12" value="&quot;tu resultado es:&quot;, Celcius" style="shape=parallelogram;perimeter=parallelogramPerimeter;whiteSpace=wrap;html=1;fixedSize=1;fillColor=#d5e8d4;strokeColor=#82b366;" vertex="1" parent="1">
          <mxGeometry x="331" y="563.25" width="166" height="36.75" as="geometry" />
        </mxCell>
        <mxCell id="myc6BcNMUTNV8lKB5lNB-14" value="FinProceso" style="ellipse;whiteSpace=wrap;html=1;fillColor=#ffe6cc;strokeColor=#d79b00;" vertex="1" parent="1">
          <mxGeometry x="381" y="640" width="66" height="41.62" as="geometry" />
        </mxCell>
      </root>
    </mxGraphModel>
  </diagram>
</mxfile>
